<svg width="153" height="152" viewBox="0 0 153 152" fill="none" xmlns="http://www.w3.org/2000/svg">
<g clip-path="url(#clip0_1_50940)">
<path d="M20.187 69.4128C22.437 67.2948 25.9779 67.4019 28.0959 69.6518L79.8672 124.65C81.9852 126.9 81.8781 130.441 79.6281 132.559L64.0113 147.26C61.7613 149.378 58.2204 149.271 56.1024 147.021L4.3311 92.0222C2.21314 89.7722 2.32017 86.2312 4.57016 84.1133L20.187 69.4128Z" fill="#3D3B6A"/>
<path d="M63.243 91.6345L61.7813 90.0817L60.2285 91.5434L39.6826 110.884L38.1298 112.345L39.5914 113.898L63.8792 139.7C65.3924 141.308 67.9224 141.384 69.5299 139.871L88.7179 121.809L90.2707 120.347L88.809 118.794L63.243 91.6345Z" fill="#9491C9" stroke="#6763B2" stroke-width="4.26502"/>
<rect x="91.657" y="61.9592" width="41.5648" height="40.6323" transform="rotate(46.7313 91.657 61.9592)" fill="#D9D8EB" stroke="#6763B2" stroke-width="4.26502"/>
<g clip-path="url(#clip1_1_50940)">
<path opacity="0.34" d="M23.3769 46.4874C23.3769 48.1322 20.9425 49.4628 17.9365 49.4628C14.9305 49.4628 12.4961 48.1278 12.4961 46.4874C12.4961 44.847 14.9305 43.512 17.9365 43.512C20.9425 43.512 23.3769 44.8426 23.3769 46.4874Z" fill="#9491C9"/>
<circle cx="23.4052" cy="35.2934" r="2.18182" fill="black"/>
<circle cx="47.4052" cy="35.2934" r="2.18182" fill="black"/>
</g>
<path d="M118.974 90.3992L120.436 91.952L121.989 90.4903L146.432 67.4808C148.04 65.9676 148.116 63.4377 146.603 61.8301L123.594 37.3863C122.081 35.7787 119.551 35.7023 117.943 37.2155L93.4993 60.225L91.9465 61.6866L93.4081 63.2394L118.974 90.3992Z" fill="#F0EFF7" stroke="#6763B2" stroke-width="4.26502"/>
<path d="M60.1031 91.1205L61.6559 89.6588L60.1942 88.106L36.137 62.5492C34.6238 60.9416 32.0938 60.8651 30.4863 62.3784L12.4985 79.3106C10.8909 80.8239 10.8144 83.3538 12.3277 84.9614L36.3849 110.518L37.8466 112.071L39.3994 110.609L60.1031 91.1205Z" fill="#F0EFF7" stroke="#6763B2" stroke-width="4.26502"/>
<path d="M46.1774 111.808C46.3768 111.127 47.3425 111.127 47.5419 111.808L48.8486 116.276C48.9166 116.509 49.0986 116.691 49.3313 116.759L53.7994 118.066C54.4812 118.265 54.4812 119.231 53.7994 119.43L49.3313 120.737C49.0986 120.805 48.9166 120.987 48.8486 121.22L47.5419 125.688C47.3425 126.37 46.3768 126.37 46.1774 125.688L44.8707 121.22C44.8026 120.987 44.6207 120.805 44.388 120.737L39.9198 119.43C39.2381 119.231 39.2381 118.265 39.9198 118.066L44.388 116.759C44.6207 116.691 44.8026 116.509 44.8707 116.276L46.1774 111.808Z" fill="white"/>
<rect x="32.6973" y="66.1541" width="4.26502" height="22.7468" rx="2.13251" transform="rotate(46.7313 32.6973 66.1541)" fill="white"/>
<rect x="91.0071" y="66.9111" width="4.26502" height="7.10837" rx="2.13251" transform="rotate(46.7313 91.0071 66.9111)" fill="white"/>
<g clip-path="url(#clip2_1_50940)">
<path opacity="0.34" d="M112.575 58.4148C111.715 59.2748 109.746 58.6977 108.174 57.126C106.603 55.5543 106.028 53.5834 106.885 52.7257C107.743 51.868 109.714 52.4428 111.286 54.0145C112.857 55.5862 113.435 57.5548 112.575 58.4148Z" fill="#9491C9"/>
<path opacity="0.34" d="M125.155 70.9954C124.295 71.8554 124.872 73.8241 126.442 75.3935C128.011 76.9629 129.982 77.5423 130.842 76.6823C131.702 75.8223 131.125 73.8537 129.553 72.282C127.982 70.7103 126.015 70.1354 125.155 70.9954Z" fill="#9491C9"/>
<circle cx="118.442" cy="52.5767" r="1.61332" transform="rotate(45 118.442 52.5767)" fill="black"/>
<circle cx="130.991" cy="65.1256" r="1.61332" transform="rotate(45 130.991 65.1256)" fill="black"/>
<path d="M123.81 67.7436C121.604 69.9494 118.03 69.9494 115.824 67.7436C113.618 65.5377 113.618 61.9639 115.824 59.7581L123.807 67.7412L123.81 67.7436Z" fill="#F04902" stroke="black" stroke-width="1.33886" stroke-linecap="round" stroke-linejoin="round"/>
</g>
</g>
<defs>
<clipPath id="clip0_1_50940">
<rect width="86.7221" height="127.752" fill="white" transform="translate(93.5183 0.384277) rotate(46.7313)"/>
</clipPath>
<clipPath id="clip1_1_50940">
<rect width="45.8182" height="22.6386" fill="white" transform="translate(12.4961 29.8389)"/>
</clipPath>
<clipPath id="clip2_1_50940">
<rect width="33.8797" height="17.7465" fill="white" transform="translate(115.59 44.0208) rotate(45)"/>
</clipPath>
</defs>
</svg>
