<svg width="40" height="40" viewBox="0 0 40 40" fill="none" xmlns="http://www.w3.org/2000/svg">
<rect x="1.5" y="1.5" width="37" height="37" rx="7.5" fill="#F0EFF7" stroke="#6961B8" stroke-width="3"/>
<path d="M24.5212 21.2415C24.5212 23.8649 22.396 25.9901 19.7725 25.9901C17.1491 25.9901 15.0239 23.8649 15.0239 21.2415" stroke="#261E1C" stroke-width="2" stroke-linecap="round" stroke-linejoin="round"/>
<path opacity="0.34" d="M12.162 22.8488C12.162 23.9206 10.5756 24.7877 8.61681 24.7877C6.65802 24.7877 5.07166 23.9177 5.07166 22.8488C5.07166 21.7799 6.65802 20.9099 8.61681 20.9099C10.5756 20.9099 12.162 21.777 12.162 22.8488Z" fill="#9491C9"/>
<path opacity="0.34" d="M27.8408 22.8488C27.8408 23.9206 29.4272 24.7877 31.3831 24.7877C33.3391 24.7877 34.9283 23.9206 34.9283 22.8488C34.9283 21.777 33.3419 20.9099 31.3831 20.9099C29.4243 20.9099 27.8408 21.777 27.8408 22.8488Z" fill="#9491C9"/>
<circle cx="12.1804" cy="15.5543" r="1.42174" fill="black"/>
<circle cx="27.8196" cy="15.5543" r="1.42174" fill="black"/>
</svg>
