<svg width="185" height="186" viewBox="0 0 185 186" fill="none" xmlns="http://www.w3.org/2000/svg">
<path d="M62.0305 39.5886C60.4468 38.0048 57.8789 38.0048 56.2951 39.5886L36.2212 59.6626C34.6374 61.2464 34.6374 63.8142 36.2212 65.398L119.385 148.561C120.968 150.145 123.536 150.145 125.12 148.561L145.194 128.488C146.778 126.904 146.778 124.336 145.194 122.752L62.0305 39.5886Z" fill="#3D3B6A" stroke="#3D3B6A" stroke-width="4.05555"/>
<path d="M64.8983 36.7209C63.3146 35.1372 60.7467 35.1372 59.1629 36.7209L41.9567 53.9272C40.3729 55.511 40.3729 58.0788 41.9567 59.6626L125.12 142.826C126.704 144.41 129.272 144.41 130.856 142.826L148.062 125.62C149.646 124.036 149.646 121.468 148.062 119.884L64.8983 36.7209Z" fill="#D9D8EB" stroke="#6763B2" stroke-width="4.05555"/>
<path d="M93.6491 64.8835L92.1202 63.3546L90.5914 64.8835L70.362 85.1129L68.8332 86.6417L70.362 88.1706L97.1033 114.912L98.6321 116.441L100.161 114.912L120.39 94.6824L121.919 93.1536L120.39 91.6247L93.6491 64.8835Z" fill="#F0EFF7" stroke="#6763B2" stroke-width="4.32425"/>
<path d="M120.675 91.3396L122.204 92.8685L123.733 91.3396L148.372 66.7008C150.008 65.0645 150.008 62.4116 148.372 60.7754L124.498 36.9018C122.862 35.2656 120.209 35.2656 118.573 36.9018L93.9341 61.5407L92.4052 63.0695L93.9341 64.5984L120.675 91.3396Z" fill="#D9D8EB" stroke="#6763B2" stroke-width="4.32425"/>
<path d="M63.5595 94.9729L62.0307 93.444L60.5018 94.9729L35.863 119.612C34.2267 121.248 34.2267 123.901 35.863 125.537L59.7365 149.411C61.3728 151.047 64.0257 151.047 65.6619 149.411L90.3008 124.772L91.8296 123.243L90.3008 121.714L63.5595 94.9729Z" fill="#3D3B6A" stroke="#3D3B6A" stroke-width="4.32425"/>
<path d="M69.2949 89.2375L67.766 87.7087L66.2372 89.2375L41.5983 113.876C39.9621 115.513 39.9621 118.166 41.5983 119.802L65.4719 143.675C67.1081 145.312 69.761 145.312 71.3973 143.675L96.0361 119.036L97.565 117.508L96.0361 115.979L69.2949 89.2375Z" fill="#D9D8EB" stroke="#6763B2" stroke-width="4.32425"/>
<rect x="61.9127" y="39.9966" width="4.32425" height="23.0627" rx="2.16213" transform="rotate(45 61.9127 39.9966)" fill="white"/>
<rect x="121.028" y="38.9775" width="4.32425" height="7.20709" rx="2.16213" transform="rotate(45 121.028 38.9775)" fill="white"/>
<g clip-path="url(#clip0_1_51952)">
<path opacity="0.34" d="M87.9537 84.7307C87.1085 85.6286 85.2111 85.2125 83.7124 83.8018C82.2138 82.3911 81.6861 80.5198 82.529 79.6243C83.372 78.7288 85.2717 79.1425 86.7703 80.5532C88.269 81.9639 88.7989 83.8328 87.9537 84.7307Z" fill="#9491C9"/>
<path opacity="0.34" d="M101.087 97.1497C100.242 98.0476 100.762 99.9074 102.247 101.305C103.731 102.702 105.621 103.111 106.466 102.213C107.312 101.316 106.791 99.4557 105.305 98.0562C103.818 96.6568 101.932 96.2518 101.087 97.1497Z" fill="#9491C9"/>
<circle cx="92.9583" cy="80.4787" r="1.63573" transform="rotate(43.2687 92.9583 80.4787)" fill="black"/>
<circle cx="106.06" cy="92.8115" r="1.63573" transform="rotate(43.2687 106.06 92.8115)" fill="black"/>
<path d="M87.5148 88.8916C89.0166 87.2963 90.5721 86.9787 91.9437 88.2698C93.3152 89.5609 92.5044 91.6007 93.5116 92.5488C94.5188 93.4969 96.5059 92.5645 97.8774 93.8556C99.2489 95.1467 99.0258 96.7186 97.524 98.314" stroke="black" stroke-width="2" stroke-linecap="round" stroke-linejoin="round"/>
</g>
<defs>
<clipPath id="clip0_1_51952">
<rect width="34.3502" height="17.993" fill="white" transform="translate(89.8059 71.8953) rotate(43.2687)"/>
</clipPath>
</defs>
</svg>
