<svg width="166" height="112" viewBox="0 0 166 112" fill="none" xmlns="http://www.w3.org/2000/svg">
<rect y="69.7705" width="165.246" height="42.2295" rx="7.34426" fill="#3D3B6A"/>
<path d="M112 56.0001H109.246V58.7542V95.4755V98.2296H112H157.902C160.437 98.2296 162.492 96.1745 162.492 93.6394V60.5902C162.492 58.0551 160.437 56.0001 157.902 56.0001H112Z" fill="#F0EFF7" stroke="#6763B2" stroke-width="5.5082"/>
<path d="M5.5083 56.0001H2.7542V58.7542V93.6394C2.7542 96.1745 4.8093 98.2296 7.34437 98.2296H53.246H56.0001V95.4755V58.7542V56.0001H53.246H5.5083Z" fill="#D9D8EB" stroke="#6763B2" stroke-width="5.5082"/>
<path d="M53.246 55.9999H56.0001V53.2458V18.3606C56.0001 15.8255 53.945 13.7704 51.4099 13.7704H7.34437C4.80928 13.7704 2.7542 15.8255 2.7542 18.3606V53.2458V55.9999H5.5083H53.246Z" fill="#F0EFF7" stroke="#6763B2" stroke-width="5.5082"/>
<path d="M58.7542 56.0001H56.0001V58.7542V95.4755V98.2296H58.7542H106.492H109.246V95.4755V58.7542V56.0001H106.492H58.7542Z" fill="#9491C9" stroke="#6763B2" stroke-width="5.5082"/>
<g clip-path="url(#clip0_230_3738)">
<path d="M35.1621 39.4753C35.1621 41.2009 33.7633 42.5961 32.0414 42.5961C30.6352 42.5961 29.4494 41.6672 29.0565 40.3932C28.6637 41.6709 27.4778 42.5961 26.0716 42.5961C24.3497 42.5961 22.9509 41.1972 22.9509 39.4753" stroke="black" stroke-width="1.83607" stroke-linecap="round" stroke-linejoin="round"/>
<path opacity="0.34" d="M19.2549 38.7971C19.2549 40.1813 17.2063 41.301 14.6767 41.301C12.147 41.301 10.0984 40.1776 10.0984 38.7971C10.0984 37.4167 12.147 36.2932 14.6767 36.2932C17.2063 36.2932 19.2549 37.413 19.2549 38.7971Z" fill="#9491C9"/>
<path opacity="0.34" d="M39.5029 38.7971C39.5029 40.1813 41.5516 41.301 44.0775 41.301C46.6035 41.301 48.6558 40.1813 48.6558 38.7971C48.6558 37.413 46.6072 36.2932 44.0775 36.2932C41.5479 36.2932 39.5029 37.413 39.5029 38.7971Z" fill="#9491C9"/>
<circle cx="19.2787" cy="29.3771" r="1.83607" fill="black"/>
<circle cx="39.4755" cy="29.3771" r="1.83607" fill="black"/>
</g>
<path d="M59.25 56.2588C59.5075 55.3783 60.7547 55.3783 61.0122 56.2588L62.3789 60.932C62.4668 61.2325 62.7018 61.4675 63.0023 61.5554L67.6755 62.9221C68.556 63.1796 68.556 64.4269 67.6755 64.6844L63.0023 66.051C62.7018 66.1389 62.4668 66.3739 62.3789 66.6745L61.0122 71.3477C60.7547 72.2281 59.5075 72.2281 59.25 71.3477L57.8833 66.6745C57.7954 66.3739 57.5604 66.1389 57.2599 66.051L52.5867 64.6844C51.7062 64.4269 51.7062 63.1796 52.5867 62.9221L57.2599 61.5554C57.5604 61.4675 57.7954 61.2325 57.8833 60.932L59.25 56.2588Z" fill="white"/>
<rect x="9.18042" y="62.4263" width="5.5082" height="13.7705" rx="2.7541" fill="white"/>
<rect x="9.18042" y="79.8689" width="5.5082" height="6.42623" rx="2.7541" fill="white"/>
<defs>
<clipPath id="clip0_230_3738">
<rect width="38.5574" height="19.0511" fill="white" transform="translate(10.0984 24.7869)"/>
</clipPath>
</defs>
</svg>
