<svg width="166" height="112" viewBox="0 0 166 112" fill="none" xmlns="http://www.w3.org/2000/svg">
<rect y="69.7705" width="165.246" height="42.2295" rx="7.34426" fill="#3D3B6A"/>
<rect x="56.0001" y="56.0001" width="53.2459" height="42.2295" fill="#9491C9" stroke="#6763B2" stroke-width="5.5082"/>
<path d="M106.492 55.0819H109.246V52.3279V7.34424C109.246 4.80916 107.191 2.75408 104.656 2.75408H60.5902C58.0551 2.75408 56.0001 4.80917 56.0001 7.34424V52.3279V55.0819H58.7542H106.492Z" fill="#F0EFF7" stroke="#6763B2" stroke-width="5.5082"/>
<circle cx="70.6886" cy="21.1148" r="1.83607" fill="black"/>
<circle cx="94.5575" cy="22.9508" r="1.83607" fill="black"/>
<path d="M73.9017 25.7049C76.9531 23.1621 79.5629 26.1639 80.328 28C81.4296 30.9377 82.9291 29.53 83.5411 28.459C84.3061 26.9289 86.5706 24.3278 89.5083 26.1639C92.446 28 91.3443 31.6721 89.9673 33.9672C88.1312 36.2623 85.8361 39.0164 81.705 39.0164C78.4001 39.0163 75.7378 36.2623 74.8198 34.8852C72.9837 32.1311 71.1476 28 73.9017 25.7049Z" fill="white"/>
<path d="M79.869 28.459L74.3608 32.5902M80.328 28C79.5629 26.1639 76.9531 23.1621 73.9017 25.7049C71.1476 28 72.9837 32.1311 74.8198 34.8852C75.7378 36.2623 78.4001 39.0163 81.705 39.0164C85.8361 39.0164 88.1312 36.2623 89.9673 33.9672C91.3443 31.6721 92.446 28 89.5083 26.1639C86.5706 24.3278 84.3061 26.9289 83.5411 28.459C82.9291 29.53 81.4296 30.9377 80.328 28Z" stroke="black" stroke-width="1.83607"/>
<path d="M81.7051 30.295L81.2461 38.5573" stroke="black" stroke-width="1.83607"/>
<path d="M84 28L89.0492 34.4262" stroke="black" stroke-width="1.83607"/>
<path d="M73.4427 20.6557L69.3115 17.4426" stroke="black" stroke-width="1.83607" stroke-linecap="round"/>
<path d="M91.5638 22.124L96.1738 19.6465" stroke="black" stroke-width="1.83607" stroke-linecap="round"/>
<path d="M56.0001 58.7542V56.0001H53.246H7.34437C4.80928 56.0001 2.7542 58.0551 2.7542 60.5902V93.6394C2.7542 96.1745 4.8093 98.2296 7.34437 98.2296H53.246H56.0001V95.4755V58.7542Z" fill="#F0EFF7" stroke="#6763B2" stroke-width="5.5082"/>
<path d="M112 56.0001H109.246V58.7542V95.4755V98.2296H112H157.902C160.437 98.2296 162.492 96.1745 162.492 93.6394V60.5902C162.492 58.0551 160.437 56.0001 157.902 56.0001H112Z" fill="#D9D8EB" stroke="#6763B2" stroke-width="5.5082"/>
<path d="M106.07 87.4719C106.327 86.5915 107.575 86.5915 107.832 87.4719L109.199 92.1451C109.287 92.4457 109.522 92.6807 109.822 92.7686L114.495 94.1352C115.376 94.3927 115.376 95.64 114.495 95.8975L109.822 97.2642C109.522 97.352 109.287 97.5871 109.199 97.8876L107.832 102.561C107.575 103.441 106.327 103.441 106.07 102.561L104.703 97.8876C104.615 97.5871 104.38 97.352 104.08 97.2642L99.4065 95.8975C98.526 95.64 98.526 94.3927 99.4065 94.1352L104.08 92.7686C104.38 92.6807 104.615 92.4457 104.703 92.1451L106.07 87.4719Z" fill="white"/>
<rect x="8.26221" y="62.4263" width="5.5082" height="29.377" rx="2.7541" fill="white"/>
<rect x="60.5901" y="8.26233" width="5.5082" height="9.18033" rx="2.7541" fill="white"/>
</svg>
