<svg width="159" height="35" viewBox="0 0 159 35" fill="none" xmlns="http://www.w3.org/2000/svg">
<rect x="1.99316" y="2.07764" width="31" height="31" rx="6.15" fill="white" stroke="#6961B8" stroke-width="3"/>
<g clip-path="url(#clip0_400_5138)">
<path opacity="0.34" d="M10.3571 20.1135C10.3571 21.0556 8.96267 21.8178 7.24094 21.8178C5.5192 21.8178 4.12482 21.0531 4.12482 20.1135C4.12482 19.174 5.5192 18.4093 7.24094 18.4093C8.96267 18.4093 10.3571 19.1715 10.3571 20.1135Z" fill="#6961B8"/>
<path opacity="0.34" d="M24.1384 20.1134C24.1384 21.0555 25.5328 21.8177 27.252 21.8177C28.9712 21.8177 30.3681 21.0555 30.3681 20.1134C30.3681 19.1713 28.9737 18.4092 27.252 18.4092C25.5303 18.4092 24.1384 19.1713 24.1384 20.1134Z" fill="#6961B8"/>
<circle cx="10.3727" cy="13.7018" r="1.24968" fill="black"/>
<circle cx="24.1188" cy="13.7018" r="1.24968" fill="black"/>
<path d="M21.6197 19.0693C21.6197 21.4857 19.6622 23.4432 17.2458 23.4432C14.8294 23.4432 12.8719 21.4857 12.8719 19.0693H21.6171H21.6197Z" fill="#F04902" stroke="black" stroke-width="1.54921" stroke-linecap="round" stroke-linejoin="round"/>
</g>
<path d="M51.1832 28.1956H47.6192C47.2672 28.1956 47.0105 28.115 46.8492 27.9536C46.6878 27.7923 46.6072 27.5356 46.6072 27.1836V16.6016H43.5932C43.2412 16.6016 42.9845 16.521 42.8232 16.3596C42.6618 16.1983 42.5812 15.9416 42.5812 15.5896V12.9276C42.5812 12.737 42.6032 12.5756 42.6472 12.4436C42.7058 12.3116 42.7865 12.2016 42.8892 12.1136L45.7272 9.71564C45.8005 9.65697 45.8958 9.61297 46.0132 9.58364C46.1452 9.53964 46.2845 9.51764 46.4312 9.51764H58.0472C58.3992 9.51764 58.6558 9.5983 58.8172 9.75964C58.9785 9.92097 59.0592 10.1776 59.0592 10.5296V13.1916C59.0592 13.3823 59.0298 13.5436 58.9712 13.6756C58.9272 13.8076 58.8538 13.9176 58.7512 14.0056L55.8912 16.3816C55.8325 16.4403 55.7372 16.4916 55.6052 16.5356C55.4878 16.5796 55.3558 16.6016 55.2092 16.6016H55.0332V24.7856C55.0332 24.9763 55.0038 25.1376 54.9452 25.2696C54.9012 25.4016 54.8278 25.5116 54.7252 25.5996L51.8652 27.9756C51.8065 28.0343 51.7112 28.0856 51.5792 28.1296C51.4618 28.1736 51.3298 28.1956 51.1832 28.1956ZM54.0212 25.5776C54.2998 25.5776 54.4978 25.519 54.6152 25.4016C54.7472 25.2696 54.8132 25.0643 54.8132 24.7856V13.9836H58.0472C58.3258 13.9836 58.5238 13.925 58.6412 13.8076C58.7732 13.6756 58.8392 13.4703 58.8392 13.1916V10.5296C58.8392 10.251 58.7732 10.053 58.6412 9.93564C58.5238 9.80364 58.3258 9.73764 58.0472 9.73764H46.4312C46.1525 9.73764 45.9472 9.80364 45.8152 9.93564C45.6978 10.053 45.6392 10.251 45.6392 10.5296V13.1916C45.6392 13.4703 45.6978 13.6756 45.8152 13.8076C45.9472 13.925 46.1525 13.9836 46.4312 13.9836H49.6652V24.7856C49.6652 25.0643 49.7238 25.2696 49.8412 25.4016C49.9732 25.519 50.1785 25.5776 50.4572 25.5776H54.0212ZM52.1292 23.5976V11.9376H47.6192V11.7176H56.8592V11.9376H52.3492V23.5976H52.1292ZM70.6721 28.1956H60.4641C60.1121 28.1956 59.8554 28.115 59.6941 27.9536C59.5327 27.7923 59.4521 27.5356 59.4521 27.1836V12.9276C59.4521 12.737 59.4741 12.5756 59.5181 12.4436C59.5767 12.3116 59.6574 12.2016 59.7601 12.1136L62.5981 9.71564C62.6714 9.65697 62.7667 9.61297 62.8841 9.58364C63.0161 9.53964 63.1554 9.51764 63.3021 9.51764H73.5101C73.8621 9.51764 74.1187 9.5983 74.2801 9.75964C74.4414 9.92097 74.5221 10.1776 74.5221 10.5296V13.1036C74.5221 13.2943 74.4927 13.4556 74.4341 13.5876C74.3901 13.7196 74.3167 13.8296 74.2141 13.9176L72.3221 15.4796C72.4687 15.553 72.5714 15.663 72.6301 15.8096C72.7034 15.9563 72.7401 16.147 72.7401 16.3816V18.7356C72.7401 18.9263 72.7107 19.0876 72.6521 19.2196C72.6081 19.3516 72.5347 19.4616 72.4321 19.5496L70.4741 21.1996H73.5101C73.8621 21.1996 74.1187 21.2803 74.2801 21.4416C74.4414 21.603 74.5221 21.8596 74.5221 22.2116V24.7856C74.5221 24.9763 74.4927 25.1376 74.4341 25.2696C74.3901 25.4016 74.3167 25.5116 74.2141 25.5996L71.3541 27.9756C71.2954 28.0343 71.2001 28.0856 71.0681 28.1296C70.9507 28.1736 70.8187 28.1956 70.6721 28.1956ZM73.5101 25.5776C73.7887 25.5776 73.9867 25.519 74.1041 25.4016C74.2361 25.2696 74.3021 25.0643 74.3021 24.7856V22.2116C74.3021 21.933 74.2361 21.735 74.1041 21.6176C73.9867 21.4856 73.7887 21.4196 73.5101 21.4196H67.4381V19.5276H71.7281C72.0067 19.5276 72.2047 19.469 72.3221 19.3516C72.4541 19.2196 72.5201 19.0143 72.5201 18.7356V16.3816C72.5201 16.103 72.4541 15.905 72.3221 15.7876C72.2047 15.6556 72.0067 15.5896 71.7281 15.5896H67.4381V13.8956H73.5101C73.7887 13.8956 73.9867 13.837 74.1041 13.7196C74.2361 13.5876 74.3021 13.3823 74.3021 13.1036V10.5296C74.3021 10.251 74.2361 10.053 74.1041 9.93564C73.9867 9.80364 73.7887 9.73764 73.5101 9.73764H63.3021C63.0234 9.73764 62.8181 9.80364 62.6861 9.93564C62.5687 10.053 62.5101 10.251 62.5101 10.5296V24.7856C62.5101 25.0643 62.5687 25.2696 62.6861 25.4016C62.8181 25.519 63.0234 25.5776 63.3021 25.5776H73.5101ZM72.3221 23.3776V23.5976H64.9081V11.7176H72.3221V11.9376H65.1281V17.4596H70.5401V17.6796H65.1281V23.3776H72.3221ZM83.078 28.1956H79.514C79.162 28.1956 78.9053 28.115 78.744 27.9536C78.5827 27.7923 78.502 27.5356 78.502 27.1836V16.6016H75.488C75.136 16.6016 74.8793 16.521 74.718 16.3596C74.5567 16.1983 74.476 15.9416 74.476 15.5896V12.9276C74.476 12.737 74.498 12.5756 74.542 12.4436C74.6007 12.3116 74.6813 12.2016 74.784 12.1136L77.622 9.71564C77.6953 9.65697 77.7907 9.61297 77.908 9.58364C78.04 9.53964 78.1793 9.51764 78.326 9.51764H89.942C90.294 9.51764 90.5507 9.5983 90.712 9.75964C90.8733 9.92097 90.954 10.1776 90.954 10.5296V13.1916C90.954 13.3823 90.9247 13.5436 90.866 13.6756C90.822 13.8076 90.7487 13.9176 90.646 14.0056L87.786 16.3816C87.7273 16.4403 87.632 16.4916 87.5 16.5356C87.3827 16.5796 87.2507 16.6016 87.104 16.6016H86.928V24.7856C86.928 24.9763 86.8987 25.1376 86.84 25.2696C86.796 25.4016 86.7227 25.5116 86.62 25.5996L83.76 27.9756C83.7013 28.0343 83.606 28.0856 83.474 28.1296C83.3567 28.1736 83.2247 28.1956 83.078 28.1956ZM85.916 25.5776C86.1947 25.5776 86.3927 25.519 86.51 25.4016C86.642 25.2696 86.708 25.0643 86.708 24.7856V13.9836H89.942C90.2207 13.9836 90.4187 13.925 90.536 13.8076C90.668 13.6756 90.734 13.4703 90.734 13.1916V10.5296C90.734 10.251 90.668 10.053 90.536 9.93564C90.4187 9.80364 90.2207 9.73764 89.942 9.73764H78.326C78.0473 9.73764 77.842 9.80364 77.71 9.93564C77.5927 10.053 77.534 10.251 77.534 10.5296V13.1916C77.534 13.4703 77.5927 13.6756 77.71 13.8076C77.842 13.925 78.0473 13.9836 78.326 13.9836H81.56V24.7856C81.56 25.0643 81.6187 25.2696 81.736 25.4016C81.868 25.519 82.0733 25.5776 82.352 25.5776H85.916ZM84.024 23.5976V11.9376H79.514V11.7176H88.754V11.9376H84.244V23.5976H84.024ZM101.797 11.9376H97.0009V18.2956H101.797C102.706 18.2956 103.315 18.0756 103.623 17.6356C103.931 17.1956 104.085 16.5723 104.085 15.7656V14.2256C104.085 13.551 103.894 13.001 103.513 12.5756C103.146 12.1503 102.574 11.9376 101.797 11.9376ZM99.3769 13.6976H101.027C101.408 13.6976 101.665 13.8003 101.797 14.0056C101.929 14.1963 101.995 14.4383 101.995 14.7316V15.4796C101.995 15.773 101.929 16.0223 101.797 16.2276C101.665 16.4183 101.408 16.5136 101.027 16.5136H99.3769V13.6976ZM97.0009 23.5976H96.7809V11.7176H101.797C102.648 11.7176 103.278 11.9596 103.689 12.4436C104.1 12.913 104.305 13.507 104.305 14.2256V15.7436C104.305 16.4183 104.217 16.9756 104.041 17.4156C103.865 17.841 103.513 18.1343 102.985 18.2956H103.227C104.122 18.2956 104.789 18.501 105.229 18.9116C105.669 19.3076 105.889 19.887 105.889 20.6496V23.5976H105.669V20.6496C105.669 19.931 105.471 19.3956 105.075 19.0436C104.679 18.677 104.063 18.4936 103.227 18.4936H97.0009V23.5976ZM98.5849 25.5776C98.8636 25.5776 99.0616 25.519 99.1789 25.4016C99.3109 25.2696 99.3769 25.0643 99.3769 24.7856V20.4736H102.457C102.765 20.4736 102.978 20.5543 103.095 20.7156C103.227 20.8623 103.293 21.097 103.293 21.4196V24.7856C103.293 25.0643 103.352 25.2696 103.469 25.4016C103.601 25.519 103.806 25.5776 104.085 25.5776H107.495C107.774 25.5776 107.972 25.519 108.089 25.4016C108.221 25.2696 108.287 25.0643 108.287 24.7856V20.1216C108.287 19.1976 108.038 18.457 107.539 17.8996C107.055 17.3423 106.417 17.0196 105.625 16.9316C106.08 16.741 106.395 16.433 106.571 16.0076C106.762 15.5676 106.857 15.0396 106.857 14.4236V13.4116C106.857 12.3263 106.542 11.4463 105.911 10.7716C105.295 10.0823 104.166 9.73764 102.523 9.73764H95.1969C94.9182 9.73764 94.7129 9.80364 94.5809 9.93564C94.4636 10.053 94.4049 10.251 94.4049 10.5296V24.7856C94.4049 25.0643 94.4636 25.2696 94.5809 25.4016C94.7129 25.519 94.9182 25.5776 95.1969 25.5776H98.5849ZM99.2889 25.5996L96.4289 27.9756C96.3702 28.0343 96.2749 28.0856 96.1429 28.1296C96.0256 28.1736 95.8936 28.1956 95.7469 28.1956H92.3589C92.0069 28.1956 91.7502 28.115 91.5889 27.9536C91.4276 27.7923 91.3469 27.5356 91.3469 27.1836V12.9276C91.3469 12.737 91.3689 12.5756 91.4129 12.4436C91.4716 12.3116 91.5522 12.2016 91.6549 12.1136L94.4929 9.71564C94.5662 9.65697 94.6616 9.61297 94.7789 9.58364C94.9109 9.53964 95.0502 9.51764 95.1969 9.51764H102.523C104.268 9.51764 105.464 9.8843 106.109 10.6176C106.754 11.3363 107.077 12.2676 107.077 13.4116V14.4236C107.077 14.9663 107.011 15.443 106.879 15.8536C106.747 16.2496 106.534 16.5723 106.241 16.8216H106.219C106.908 17.0123 107.458 17.3936 107.869 17.9656C108.294 18.5376 108.507 19.2563 108.507 20.1216V24.7856C108.507 24.9763 108.478 25.1376 108.419 25.2696C108.375 25.4016 108.302 25.5116 108.199 25.5996L105.339 27.9756C105.28 28.0343 105.185 28.0856 105.053 28.1296C104.936 28.1736 104.804 28.1956 104.657 28.1956H101.247C100.895 28.1956 100.638 28.115 100.477 27.9536C100.316 27.7923 100.235 27.5356 100.235 27.1836V23.8176C100.235 23.583 100.191 23.407 100.103 23.2896C100.015 23.1576 99.8536 23.0916 99.6189 23.0916H99.5969V24.7856C99.5969 24.9763 99.5676 25.1376 99.5089 25.2696C99.4649 25.4016 99.3916 25.5116 99.2889 25.5996ZM119.26 28.1956H109.888C109.536 28.1956 109.279 28.115 109.118 27.9536C108.957 27.7923 108.876 27.5356 108.876 27.1836V24.5656C108.876 24.375 108.898 24.2136 108.942 24.0816C109.001 23.9496 109.081 23.8396 109.184 23.7516L111.846 21.5076V16.6016H109.888C109.536 16.6016 109.279 16.521 109.118 16.3596C108.957 16.1983 108.876 15.9416 108.876 15.5896V12.9276C108.876 12.737 108.898 12.5756 108.942 12.4436C109.001 12.3116 109.081 12.2016 109.184 12.1136L112.022 9.71564C112.095 9.65697 112.191 9.61297 112.308 9.58364C112.44 9.53964 112.579 9.51764 112.726 9.51764H122.098C122.45 9.51764 122.707 9.5983 122.868 9.75964C123.029 9.92097 123.11 10.1776 123.11 10.5296V13.1916C123.11 13.3823 123.081 13.5436 123.022 13.6756C122.978 13.8076 122.905 13.9176 122.802 14.0056L120.184 16.2056V21.1556H122.098C122.45 21.1556 122.707 21.2363 122.868 21.3976C123.029 21.559 123.11 21.8156 123.11 22.1676V24.7856C123.11 24.9763 123.081 25.1376 123.022 25.2696C122.978 25.4016 122.905 25.5116 122.802 25.5996L119.942 27.9756C119.883 28.0343 119.788 28.0856 119.656 28.1296C119.539 28.1736 119.407 28.1956 119.26 28.1956ZM112.726 25.5776H122.098C122.377 25.5776 122.575 25.519 122.692 25.4016C122.824 25.2696 122.89 25.0643 122.89 24.7856V22.1676C122.89 21.889 122.824 21.691 122.692 21.5736C122.575 21.4416 122.377 21.3756 122.098 21.3756H119.964V13.9836H122.098C122.377 13.9836 122.575 13.925 122.692 13.8076C122.824 13.6756 122.89 13.4703 122.89 13.1916V10.5296C122.89 10.251 122.824 10.053 122.692 9.93564C122.575 9.80364 122.377 9.73764 122.098 9.73764H112.726C112.447 9.73764 112.242 9.80364 112.11 9.93564C111.993 10.053 111.934 10.251 111.934 10.5296V13.1916C111.934 13.4703 111.993 13.6756 112.11 13.8076C112.242 13.925 112.447 13.9836 112.726 13.9836H114.904V21.3756H112.726C112.447 21.3756 112.242 21.4416 112.11 21.5736C111.993 21.691 111.934 21.889 111.934 22.1676V24.7856C111.934 25.0643 111.993 25.2696 112.11 25.4016C112.242 25.519 112.447 25.5776 112.726 25.5776ZM120.91 23.5976H113.914V23.3776H117.324V11.9376H113.914V11.7176H120.91V11.9376H117.544V23.3776H120.91V23.5976ZM124.696 28.1956C124.344 28.1956 124.087 28.115 123.926 27.9536C123.764 27.7923 123.684 27.5356 123.684 27.1836V24.6096C123.684 24.419 123.706 24.2576 123.75 24.1256C123.808 23.9936 123.889 23.8836 123.992 23.7956L126.192 21.9476C125.414 21.713 124.798 21.317 124.344 20.7596C123.904 20.1876 123.684 19.3736 123.684 18.3176V16.0076C123.684 15.3476 123.794 14.761 124.014 14.2476C124.234 13.7343 124.549 13.3016 124.96 12.9496L127.82 10.5516C128.216 10.229 128.707 9.97964 129.294 9.80364C129.88 9.61297 130.548 9.51764 131.296 9.51764H137.456C137.808 9.51764 138.064 9.5983 138.226 9.75964C138.387 9.92097 138.468 10.1776 138.468 10.5296V13.1476C138.468 13.3383 138.438 13.4996 138.38 13.6316C138.336 13.7636 138.262 13.8736 138.16 13.9616L136.18 15.6116C137.104 15.817 137.844 16.2056 138.402 16.7776C138.974 17.335 139.26 18.2076 139.26 19.3956V21.7056C139.26 22.3656 139.15 22.9523 138.93 23.4656C138.71 23.979 138.387 24.4116 137.962 24.7636L135.124 27.1396C134.713 27.477 134.214 27.7336 133.628 27.9096C133.041 28.1003 132.381 28.1956 131.648 28.1956H124.696ZM134.486 25.5776C135.894 25.5776 137.001 25.2476 137.808 24.5876C138.629 23.913 139.04 22.9523 139.04 21.7056V19.3956C139.04 18.1636 138.724 17.2836 138.094 16.7556C137.463 16.2276 136.634 15.8903 135.608 15.7436L132.33 15.3036C132.139 15.289 131.992 15.2156 131.89 15.0836C131.787 14.9516 131.736 14.7903 131.736 14.5996C131.736 14.409 131.787 14.255 131.89 14.1376C131.992 14.0056 132.139 13.9396 132.33 13.9396H137.456C137.734 13.9396 137.932 13.881 138.05 13.7636C138.182 13.6316 138.248 13.4263 138.248 13.1476V10.5296C138.248 10.251 138.182 10.053 138.05 9.93564C137.932 9.80364 137.734 9.73764 137.456 9.73764H131.296C129.873 9.73764 128.758 10.075 127.952 10.7496C127.145 11.4096 126.742 12.363 126.742 13.6096V15.9196C126.742 17.1516 127.05 18.0316 127.666 18.5596C128.296 19.0876 129.125 19.425 130.152 19.5716L133.452 20.0336C133.642 20.0483 133.782 20.1143 133.87 20.2316C133.972 20.349 134.024 20.5323 134.024 20.7816C134.024 20.9576 133.972 21.1116 133.87 21.2436C133.782 21.361 133.642 21.4196 133.452 21.4196H127.534C127.255 21.4196 127.05 21.4856 126.918 21.6176C126.8 21.735 126.742 21.933 126.742 22.2116V24.7856C126.742 25.0643 126.8 25.2696 126.918 25.4016C127.05 25.519 127.255 25.5776 127.534 25.5776H134.486ZM136.268 11.7176V11.9376H131.384C130.768 11.9376 130.276 12.1063 129.91 12.4436C129.543 12.781 129.36 13.2063 129.36 13.7196V15.5236C129.36 16.037 129.462 16.3963 129.668 16.6016C129.873 16.807 130.144 16.939 130.482 16.9976L135.124 17.9436C135.564 18.0316 135.923 18.2223 136.202 18.5156C136.495 18.809 136.642 19.337 136.642 20.0996V21.3756C136.642 22.021 136.422 22.5563 135.982 22.9816C135.542 23.3923 134.948 23.5976 134.2 23.5976H128.722V23.3776H134.2C134.874 23.3776 135.41 23.1943 135.806 22.8276C136.216 22.4463 136.422 21.9623 136.422 21.3756V20.0996C136.422 19.4103 136.297 18.941 136.048 18.6916C135.813 18.4276 135.49 18.2516 135.08 18.1636L130.438 17.2176C130.056 17.1443 129.741 16.9976 129.492 16.7776C129.257 16.543 129.14 16.125 129.14 15.5236V13.7196C129.14 13.133 129.345 12.6563 129.756 12.2896C130.166 11.9083 130.709 11.7176 131.384 11.7176H136.268ZM145.596 23.5976H145.376V11.7176H145.596V17.5696H150.37L152.9 11.7176H153.142L150.612 17.5696H151.514C152.408 17.5696 153.076 17.7383 153.516 18.0756C153.956 18.413 154.176 18.963 154.176 19.7256V23.5976H153.956V19.7256C153.956 19.0216 153.75 18.523 153.34 18.2296C152.929 17.9363 152.32 17.7896 151.514 17.7896H145.596V23.5976ZM147.18 25.5776C147.458 25.5776 147.656 25.519 147.774 25.4016C147.906 25.2696 147.972 25.0643 147.972 24.7856V19.7476H150.876C151.11 19.7476 151.286 19.8136 151.404 19.9456C151.521 20.0776 151.58 20.261 151.58 20.4956V24.7856C151.58 25.0643 151.638 25.2696 151.756 25.4016C151.888 25.519 152.093 25.5776 152.372 25.5776H155.76C156.038 25.5776 156.236 25.519 156.354 25.4016C156.486 25.2696 156.552 25.0643 156.552 24.7856V18.5816C156.552 17.7016 156.302 16.9976 155.804 16.4696C155.32 15.927 154.667 15.6336 153.846 15.5896L156.09 10.4636C156.192 10.229 156.2 10.053 156.112 9.93564C156.024 9.80364 155.855 9.73764 155.606 9.73764H152.218C151.939 9.73764 151.712 9.7963 151.536 9.91364C151.36 10.0163 151.22 10.1996 151.118 10.4636L148.852 15.5896H147.972V10.5296C147.972 10.251 147.906 10.053 147.774 9.93564C147.656 9.80364 147.458 9.73764 147.18 9.73764H143.77C143.491 9.73764 143.286 9.80364 143.154 9.93564C143.036 10.053 142.978 10.251 142.978 10.5296V24.7856C142.978 25.0643 143.036 25.2696 143.154 25.4016C143.286 25.519 143.491 25.5776 143.77 25.5776H147.18ZM147.884 25.5996L145.024 27.9756C144.965 28.0343 144.87 28.0856 144.738 28.1296C144.62 28.1736 144.488 28.1956 144.342 28.1956H140.932C140.58 28.1956 140.323 28.115 140.162 27.9536C140 27.7923 139.92 27.5356 139.92 27.1836V12.9276C139.92 12.737 139.942 12.5756 139.986 12.4436C140.044 12.3116 140.125 12.2016 140.228 12.1136L143.066 9.71564C143.139 9.65697 143.234 9.61297 143.352 9.58364C143.484 9.53964 143.623 9.51764 143.77 9.51764H147.18C147.532 9.51764 147.788 9.5983 147.95 9.75964C148.111 9.92097 148.192 10.1776 148.192 10.5296V12.5316C148.236 12.473 148.28 12.4143 148.324 12.3556C148.368 12.2823 148.419 12.2236 148.478 12.1796L151.316 9.78164C151.418 9.69364 151.543 9.62764 151.69 9.58364C151.851 9.53964 152.027 9.51764 152.218 9.51764H155.606C155.972 9.51764 156.214 9.61297 156.332 9.80364C156.449 9.97964 156.434 10.229 156.288 10.5516L154.176 15.3916C154.968 15.4943 155.598 15.8316 156.068 16.4036C156.537 16.9756 156.772 17.7016 156.772 18.5816V24.7856C156.772 24.9763 156.742 25.1376 156.684 25.2696C156.64 25.4016 156.566 25.5116 156.464 25.5996L153.604 27.9756C153.545 28.0343 153.45 28.0856 153.318 28.1296C153.2 28.1736 153.068 28.1956 152.922 28.1956H149.534C149.182 28.1956 148.925 28.115 148.764 27.9536C148.602 27.7923 148.522 27.5356 148.522 27.1836V22.8936C148.522 22.747 148.492 22.6296 148.434 22.5416C148.375 22.4536 148.294 22.4023 148.192 22.3876V24.7856C148.192 24.9763 148.162 25.1376 148.104 25.2696C148.06 25.4016 147.986 25.5116 147.884 25.5996Z" fill="black"/>
<defs>
<clipPath id="clip0_400_5138">
<rect width="26.2434" height="13.7465" fill="white" transform="translate(4.125 10.5776)"/>
</clipPath>
</defs>
</svg>
