<svg width="273" height="102" viewBox="0 0 273 102" fill="none" xmlns="http://www.w3.org/2000/svg">
<path d="M1.15231 100.545V57.5421L2.73408 57.0013C28.5539 48.174 55.6386 43.6179 82.921 43.5102V86.6255C55.4206 86.7331 28.1195 91.3253 2.09342 100.223L1.15231 100.545Z" fill="#F04902" stroke="black" stroke-width="1.98039"/>
<path d="M271.058 100.545V57.5421L269.476 57.0013C243.657 48.174 216.572 43.6179 189.29 43.5102V86.6255C216.79 86.7331 244.091 91.3253 270.117 100.223L271.058 100.545Z" fill="#F04902" stroke="black" stroke-width="1.98039"/>
<path d="M20.9563 81.9434V21.5697C96.988 8.66796 174.65 8.66796 250.682 21.5697V81.9434C174.647 69.0793 96.9911 69.0793 20.9563 81.9434Z" fill="#F04902" stroke="black" stroke-width="1.98039"/>
<path d="M79.9308 47.7546H75.054L70.994 42.3252C70.6256 41.8287 70.3774 41.3963 70.2492 41.0279C70.1371 40.6596 70.0811 40.107 70.0811 39.3703V34.7577C70.0811 34.4534 70.1451 34.2372 70.2733 34.1091C70.4174 33.965 70.6416 33.8929 70.9459 33.8929H74.6456C74.9499 33.8929 75.1661 33.965 75.2942 34.1091C75.4383 34.2372 75.5104 34.4534 75.5104 34.7577V38.6976C75.5104 38.8578 75.5184 39.026 75.5344 39.2021C75.5505 39.3783 75.6145 39.5465 75.7266 39.7066L76.8317 41.4363C76.9118 41.5805 76.9919 41.6846 77.072 41.7486C77.168 41.8127 77.2802 41.8447 77.4083 41.8447H77.6485C77.7766 41.8447 77.8808 41.8127 77.9608 41.7486C78.0569 41.6846 78.145 41.5805 78.2251 41.4363L79.3302 39.7066C79.4423 39.5465 79.5064 39.3783 79.5224 39.2021C79.5384 39.026 79.5464 38.8578 79.5464 38.6976V34.7577C79.5464 34.4534 79.6105 34.2372 79.7386 34.1091C79.8827 33.965 80.1069 33.8929 80.4112 33.8929H83.9908C84.2951 33.8929 84.5113 33.965 84.6394 34.1091C84.7836 34.2372 84.8556 34.4534 84.8556 34.7577V39.3703C84.8556 40.107 84.7916 40.6596 84.6634 41.0279C84.5353 41.3963 84.2951 41.8287 83.9427 42.3252L79.9308 47.7546ZM79.4263 51.1899H75.5344C75.2301 51.1899 75.0059 51.1259 74.8618 50.9978C74.7337 50.8536 74.6696 50.6294 74.6696 50.3251V45.8086H80.2911V50.3251C80.2911 50.6294 80.2191 50.8536 80.0749 50.9978C79.9468 51.1259 79.7306 51.1899 79.4263 51.1899ZM102.251 46.6495C102.251 47.3862 102.139 48.0589 101.914 48.6675C101.706 49.26 101.322 49.7725 100.761 50.205C100.217 50.6214 99.4559 50.9497 98.4789 51.1899C97.518 51.4302 96.2928 51.5503 94.8033 51.5503C93.3138 51.5503 92.0806 51.4302 91.1037 51.1899C90.1267 50.9497 89.3579 50.6214 88.7974 50.205C88.2528 49.7725 87.8685 49.26 87.6442 48.6675C87.436 48.0589 87.3319 47.3862 87.3319 46.6495V38.4574C87.3319 37.7207 87.436 37.056 87.6442 36.4634C87.8685 35.8548 88.2528 35.3343 88.7974 34.9019C89.3579 34.4695 90.1267 34.1331 91.1037 33.8929C92.0806 33.6527 93.3138 33.5325 94.8033 33.5325C96.2928 33.5325 97.518 33.6527 98.4789 33.8929C99.4559 34.1331 100.217 34.4695 100.761 34.9019C101.322 35.3343 101.706 35.8548 101.914 36.4634C102.139 37.056 102.251 37.7207 102.251 38.4574V46.6495ZM92.7853 45.7846C92.7853 46.1049 92.9054 46.3772 93.1457 46.6014C93.3859 46.8096 93.9384 46.9137 94.8033 46.9137C95.6682 46.9137 96.2207 46.8096 96.4609 46.6014C96.7012 46.3772 96.8213 46.1049 96.8213 45.7846V39.3222C96.8213 39.0179 96.7012 38.7617 96.4609 38.5535C96.2207 38.3293 95.6682 38.2172 94.8033 38.2172C93.9384 38.2172 93.3859 38.3293 93.1457 38.5535C92.9054 38.7617 92.7853 39.0179 92.7853 39.3222V45.7846ZM120.035 46.6495C120.035 47.3862 119.923 48.0589 119.699 48.6675C119.491 49.26 119.107 49.7725 118.546 50.205C118.001 50.6214 117.249 50.9497 116.288 51.1899C115.327 51.4302 114.102 51.5503 112.612 51.5503C111.123 51.5503 109.897 51.4302 108.937 51.1899C107.976 50.9497 107.215 50.6214 106.654 50.205C106.11 49.7725 105.725 49.26 105.501 48.6675C105.293 48.0589 105.189 47.3862 105.189 46.6495V34.7577C105.189 34.4534 105.253 34.2372 105.381 34.1091C105.525 33.965 105.749 33.8929 106.054 33.8929H109.825C110.13 33.8929 110.346 33.965 110.474 34.1091C110.618 34.2372 110.69 34.4534 110.69 34.7577V45.7125C110.69 46.0329 110.81 46.3051 111.051 46.5293C111.291 46.7376 111.827 46.8417 112.66 46.8417C113.509 46.8417 114.054 46.7376 114.294 46.5293C114.534 46.3051 114.654 46.0329 114.654 45.7125V34.7577C114.654 34.4534 114.718 34.2372 114.846 34.1091C114.991 33.965 115.215 33.8929 115.519 33.8929H119.171C119.475 33.8929 119.691 33.965 119.819 34.1091C119.963 34.2372 120.035 34.4534 120.035 34.7577V46.6495ZM142.566 51.1899H130.338C130.034 51.1899 129.81 51.1259 129.666 50.9978C129.537 50.8536 129.473 50.6294 129.473 50.3251V34.7577C129.473 34.4534 129.537 34.2372 129.666 34.1091C129.81 33.965 130.034 33.8929 130.338 33.8929H134.062C134.366 33.8929 134.582 33.965 134.711 34.1091C134.855 34.2372 134.927 34.4534 134.927 34.7577V46.6495H138.218V42.7576C138.218 42.4533 138.282 42.2371 138.41 42.109C138.554 41.9649 138.779 41.8928 139.083 41.8928H142.566C142.871 41.8928 143.087 41.9649 143.215 42.109C143.359 42.2371 143.431 42.4533 143.431 42.7576V50.3251C143.431 50.6294 143.359 50.8536 143.215 50.9978C143.087 51.1259 142.871 51.1899 142.566 51.1899ZM160.832 46.6495C160.832 47.3862 160.72 48.0589 160.495 48.6675C160.287 49.26 159.903 49.7725 159.342 50.205C158.798 50.6214 158.037 50.9497 157.06 51.1899C156.099 51.4302 154.874 51.5503 153.384 51.5503C151.895 51.5503 150.662 51.4302 149.685 51.1899C148.708 50.9497 147.939 50.6214 147.379 50.205C146.834 49.7725 146.45 49.26 146.225 48.6675C146.017 48.0589 145.913 47.3862 145.913 46.6495V38.4574C145.913 37.7207 146.017 37.056 146.225 36.4634C146.45 35.8548 146.834 35.3343 147.379 34.9019C147.939 34.4695 148.708 34.1331 149.685 33.8929C150.662 33.6527 151.895 33.5325 153.384 33.5325C154.874 33.5325 156.099 33.6527 157.06 33.8929C158.037 34.1331 158.798 34.4695 159.342 34.9019C159.903 35.3343 160.287 35.8548 160.495 36.4634C160.72 37.056 160.832 37.7207 160.832 38.4574V46.6495ZM151.366 45.7846C151.366 46.1049 151.487 46.3772 151.727 46.6014C151.967 46.8096 152.52 46.9137 153.384 46.9137C154.249 46.9137 154.802 46.8096 155.042 46.6014C155.282 46.3772 155.402 46.1049 155.402 45.7846V39.3222C155.402 39.0179 155.282 38.7617 155.042 38.5535C154.802 38.3293 154.249 38.2172 153.384 38.2172C152.52 38.2172 151.967 38.3293 151.727 38.5535C151.487 38.7617 151.366 39.0179 151.366 39.3222V45.7846ZM171.914 51.1899H164.323C164.018 51.1899 163.794 51.1259 163.65 50.9978C163.522 50.8536 163.458 50.6294 163.458 50.3251V47.5143C163.458 47.21 163.522 46.9938 163.65 46.8657C163.794 46.7215 164.018 46.6495 164.323 46.6495H170.785C170.993 46.6495 171.145 46.5854 171.241 46.4573C171.353 46.3131 171.41 46.145 171.41 45.9528C171.41 45.6805 171.353 45.4803 171.241 45.3522C171.145 45.2241 170.993 45.152 170.785 45.136L167.181 44.6315C166.06 44.4713 165.155 44.103 164.467 43.5264C163.794 42.9498 163.458 41.9889 163.458 40.6435V38.1211C163.458 36.7597 163.898 35.7187 164.779 34.998C165.66 34.2613 166.877 33.8929 168.431 33.8929H175.157C175.462 33.8929 175.678 33.965 175.806 34.1091C175.95 34.2372 176.022 34.4534 176.022 34.7577V37.6166C176.022 37.9209 175.95 38.1451 175.806 38.2892C175.678 38.4174 175.462 38.4814 175.157 38.4814H169.56C169.352 38.4814 169.191 38.5535 169.079 38.6976C168.967 38.8258 168.911 38.9939 168.911 39.2021C168.911 39.4103 168.967 39.5865 169.079 39.7306C169.191 39.8748 169.352 39.9549 169.56 39.9709L173.139 40.4514C174.26 40.6115 175.165 40.9799 175.854 41.5564C176.543 42.133 176.887 43.094 176.887 44.4393V46.9618C176.887 48.3231 176.438 49.3722 175.542 50.1089C174.661 50.8296 173.452 51.1899 171.914 51.1899ZM187.448 51.1899H183.557C183.252 51.1899 183.028 51.1259 182.884 50.9978C182.756 50.8536 182.692 50.6294 182.692 50.3251V38.5295H179.16C178.856 38.5295 178.632 38.4654 178.488 38.3373C178.359 38.1931 178.295 37.9689 178.295 37.6646V34.7577C178.295 34.4534 178.359 34.2372 178.488 34.1091C178.632 33.965 178.856 33.8929 179.16 33.8929H191.845C192.149 33.8929 192.365 33.965 192.493 34.1091C192.637 34.2372 192.71 34.4534 192.71 34.7577V37.6646C192.71 37.9689 192.637 38.1931 192.493 38.3373C192.365 38.4654 192.149 38.5295 191.845 38.5295H188.313V50.3251C188.313 50.6294 188.241 50.8536 188.097 50.9978C187.969 51.1259 187.753 51.1899 187.448 51.1899ZM200.715 51.1899H196.295C195.991 51.1899 195.767 51.1259 195.622 50.9978C195.494 50.8536 195.43 50.6294 195.43 50.3251V47.178C195.43 46.8737 195.494 46.6575 195.622 46.5293C195.767 46.3852 195.991 46.3131 196.295 46.3131H200.715C201.02 46.3131 201.236 46.3852 201.364 46.5293C201.508 46.6575 201.58 46.8737 201.58 47.178V50.3251C201.58 50.6294 201.508 50.8536 201.364 50.9978C201.236 51.1259 201.02 51.1899 200.715 51.1899ZM200.355 44.8957H196.631C196.327 44.8957 196.103 44.8317 195.959 44.7035C195.831 44.5594 195.759 44.3352 195.743 44.0309L195.382 34.7577C195.366 34.4534 195.422 34.2372 195.55 34.1091C195.678 33.965 195.895 33.8929 196.199 33.8929H200.787C201.092 33.8929 201.308 33.965 201.436 34.1091C201.564 34.2372 201.62 34.4534 201.604 34.7577L201.268 44.0309C201.252 44.3352 201.172 44.5594 201.028 44.7035C200.884 44.8317 200.659 44.8957 200.355 44.8957Z" fill="white"/>
</svg>
