<svg width="166" height="112" viewBox="0 0 166 112" fill="none" xmlns="http://www.w3.org/2000/svg">
<rect x="53.2458" y="69.7705" width="112" height="42.2295" rx="7.34426" fill="#3D3B6A"/>
<rect y="27.541" width="112" height="42.2295" rx="7.34426" fill="#3D3B6A"/>
<path d="M58.7542 56.0001H56.0001V58.7542V93.6394C56.0001 96.1745 58.0552 98.2296 60.5902 98.2296H106.492H109.246V95.4755V58.7542V56.0001H106.492H58.7542Z" fill="#F0EFF7" stroke="#6763B2" stroke-width="5.5082"/>
<path d="M58.7542 13.7704H56.0001V16.5245V53.2458V55.9999H58.7542H106.492H109.246V53.2458V18.3606C109.246 15.8255 107.191 13.7704 104.656 13.7704H58.7542Z" fill="#D9D8EB" stroke="#6763B2" stroke-width="5.5082"/>
<path d="M56.0001 16.5245V13.7704H53.246H7.34437C4.80928 13.7704 2.7542 15.8255 2.7542 18.3606V51.4098C2.7542 53.9449 4.8093 55.9999 7.34437 55.9999H53.246H56.0001V53.2458V16.5245Z" fill="#F0EFF7" stroke="#6763B2" stroke-width="5.5082"/>
<path d="M16.8154 36.4521C16.9863 37.8257 15.0821 39.1888 12.5602 39.4996C10.0383 39.8105 7.85723 38.9473 7.6868 37.5773C7.51638 36.2073 9.42009 34.8406 11.942 34.5298C14.4639 34.2189 16.6445 35.0784 16.8154 36.4521Z" fill="#D1CFE7"/>
<path d="M40.887 32.0688C41.0579 33.4424 43.2385 34.302 45.7568 33.9915C48.275 33.6811 50.1828 32.3176 50.012 30.944C49.8411 29.5703 47.6604 28.7108 45.1385 29.0217C42.6166 29.3325 40.7161 30.6952 40.887 32.0688Z" fill="#D1CFE7"/>
<circle cx="17.8141" cy="28.8307" r="1.83607" transform="rotate(-13.2347 17.8141 28.8307)" fill="black"/>
<circle cx="37.0929" cy="26.0765" r="1.83607" transform="rotate(-13.2347 37.0929 26.0765)" fill="black"/>
<path d="M37.163 32.1312C37.8756 36.4085 34.9721 40.4482 30.6752 41.1576C26.3784 41.867 22.3203 38.9767 21.6077 34.6993" stroke="black" stroke-width="1.86084" stroke-linecap="round" stroke-linejoin="round"/>
<path d="M22.2052 36.6378L20.0091 39.9759C18.7537 41.8808 19.2894 44.4425 21.203 45.6922C23.1212 46.9411 25.69 46.4085 26.9454 44.5036L29.0815 41.2603C26.0922 41.1455 23.4269 39.3362 22.2098 36.637L22.2052 36.6378Z" fill="#F04902" stroke="black" stroke-width="1.86084" stroke-linecap="round" stroke-linejoin="round"/>
<path d="M112 56.0001H109.246V58.7542V95.4755V98.2296H112H157.902C160.437 98.2296 162.492 96.1745 162.492 93.6394V60.5902C162.492 58.0551 160.437 56.0001 157.902 56.0001H112Z" fill="#9491C9" stroke="#6763B2" stroke-width="5.5082"/>
<rect x="136.787" y="90.8853" width="5.5082" height="18.3607" rx="2.7541" transform="rotate(-90 136.787 90.8853)" fill="white"/>
</svg>
