<svg width="792" height="92" viewBox="0 0 792 92" fill="none" xmlns="http://www.w3.org/2000/svg">
<mask id="path-1-inside-1_1_43681" fill="white">
<path fill-rule="evenodd" clip-rule="evenodd" d="M16 0C7.16344 0 0 7.16344 0 16V69C0 77.8366 7.16346 85 16 85H388.515L395.485 91.9706L402.456 85H776C784.837 85 792 77.8366 792 69V16C792 7.16344 784.837 0 776 0H16Z"/>
</mask>
<path fill-rule="evenodd" clip-rule="evenodd" d="M16 0C7.16344 0 0 7.16344 0 16V69C0 77.8366 7.16346 85 16 85H388.515L395.485 91.9706L402.456 85H776C784.837 85 792 77.8366 792 69V16C792 7.16344 784.837 0 776 0H16Z" fill="white"/>
<path d="M388.515 85L389.222 84.2929L388.929 84H388.515V85ZM395.485 91.9706L394.778 92.6777L395.485 93.3848L396.192 92.6777L395.485 91.9706ZM402.456 85V84H402.042L401.749 84.2929L402.456 85ZM1 16C1 7.71573 7.71573 1 16 1V-1C6.61116 -1 -1 6.61116 -1 16H1ZM1 69V16H-1V69H1ZM16 84C7.71574 84 1 77.2843 1 69H-1C-1 78.3888 6.61118 86 16 86V84ZM388.515 84H16V86H388.515V84ZM396.192 91.2635L389.222 84.2929L387.808 85.7071L394.778 92.6777L396.192 91.2635ZM401.749 84.2929L394.778 91.2635L396.192 92.6777L403.163 85.7071L401.749 84.2929ZM776 84H402.456V86H776V84ZM791 69C791 77.2843 784.284 84 776 84V86C785.389 86 793 78.3888 793 69H791ZM791 16V69H793V16H791ZM776 1C784.284 1 791 7.71573 791 16H793C793 6.61116 785.389 -1 776 -1V1ZM16 1H776V-1H16V1Z" fill="black" mask="url(#path-1-inside-1_1_43681)"/>
</svg>
