<svg width="49" height="17" viewBox="0 0 49 17" fill="none" xmlns="http://www.w3.org/2000/svg">
<g opacity="0.3">
<circle cx="45.0957" cy="12.8981" r="3.13376" transform="rotate(-180 45.0957 12.8981)" fill="black"/>
<circle cx="45.0957" cy="3.49686" r="3.13376" transform="rotate(-180 45.0957 3.49686)" fill="black"/>
<circle cx="34.6499" cy="12.8981" r="3.13376" transform="rotate(-180 34.6499 12.8981)" fill="black"/>
<circle cx="34.6499" cy="3.49686" r="3.13376" transform="rotate(-180 34.6499 3.49686)" fill="black"/>
<circle cx="24.2041" cy="12.8981" r="3.13376" transform="rotate(-180 24.2041 12.8981)" fill="black"/>
<circle cx="24.2039" cy="3.49686" r="3.13376" transform="rotate(-180 24.2039 3.49686)" fill="black"/>
<circle cx="13.7581" cy="12.8981" r="3.13376" transform="rotate(-180 13.7581 12.8981)" fill="black"/>
<circle cx="3.31229" cy="12.8981" r="3.13376" transform="rotate(-180 3.31229 12.8981)" fill="black"/>
<circle cx="13.7581" cy="3.49686" r="3.13376" transform="rotate(-180 13.7581 3.49686)" fill="black"/>
<circle cx="3.31229" cy="3.49686" r="3.13376" transform="rotate(-180 3.31229 3.49686)" fill="black"/>
</g>
</svg>
