<svg width="273" height="102" viewBox="0 0 273 102" fill="none" xmlns="http://www.w3.org/2000/svg">
<path d="M1.15231 100.545V57.5421L2.73408 57.0013C28.5539 48.174 55.6386 43.6179 82.921 43.5102V86.6255C55.4206 86.7331 28.1195 91.3253 2.09342 100.223L1.15231 100.545Z" fill="#F04902" stroke="black" stroke-width="1.98039"/>
<path d="M271.058 100.545V57.5421L269.476 57.0013C243.657 48.174 216.572 43.6179 189.289 43.5102V86.6255C216.79 86.7331 244.091 91.3253 270.117 100.223L271.058 100.545Z" fill="#F04902" stroke="black" stroke-width="1.98039"/>
<path d="M20.9563 81.9434V21.5697C96.988 8.66796 174.65 8.66796 250.682 21.5697V81.9434C174.647 69.0793 96.9911 69.0793 20.9563 81.9434Z" fill="#F04902" stroke="black" stroke-width="1.98039"/>
<path d="M86.0284 47.7546H81.1516L77.0916 42.3252C76.7233 41.8287 76.475 41.3963 76.3469 41.0279C76.2348 40.6596 76.1787 40.107 76.1787 39.3703V34.7577C76.1787 34.4534 76.2428 34.2372 76.3709 34.1091C76.5151 33.965 76.7393 33.8929 77.0436 33.8929H80.7432C81.0475 33.8929 81.2637 33.965 81.3919 34.1091C81.536 34.2372 81.6081 34.4534 81.6081 34.7577V38.6976C81.6081 38.8578 81.6161 39.026 81.6321 39.2021C81.6481 39.3783 81.7122 39.5465 81.8243 39.7066L82.9294 41.4363C83.0095 41.5805 83.0895 41.6846 83.1696 41.7486C83.2657 41.8127 83.3778 41.8447 83.5059 41.8447H83.7462C83.8743 41.8447 83.9784 41.8127 84.0585 41.7486C84.1546 41.6846 84.2427 41.5805 84.3227 41.4363L85.4278 39.7066C85.5399 39.5465 85.604 39.3783 85.62 39.2021C85.636 39.026 85.644 38.8578 85.644 38.6976V34.7577C85.644 34.4534 85.7081 34.2372 85.8362 34.1091C85.9804 33.965 86.2046 33.8929 86.5089 33.8929H90.0884C90.3927 33.8929 90.6089 33.965 90.7371 34.1091C90.8812 34.2372 90.9533 34.4534 90.9533 34.7577V39.3703C90.9533 40.107 90.8892 40.6596 90.7611 41.0279C90.633 41.3963 90.3927 41.8287 90.0404 42.3252L86.0284 47.7546ZM85.5239 51.1899H81.6321C81.3278 51.1899 81.1036 51.1259 80.9594 50.9978C80.8313 50.8536 80.7672 50.6294 80.7672 50.3251V45.8086H86.3888V50.3251C86.3888 50.6294 86.3167 50.8536 86.1726 50.9978C86.0444 51.1259 85.8282 51.1899 85.5239 51.1899ZM108.348 46.6495C108.348 47.3862 108.236 48.0589 108.012 48.6675C107.804 49.26 107.419 49.7725 106.859 50.205C106.314 50.6214 105.554 50.9497 104.577 51.1899C103.616 51.4302 102.39 51.5503 100.901 51.5503C99.4115 51.5503 98.1783 51.4302 97.2013 51.1899C96.2243 50.9497 95.4556 50.6214 94.895 50.205C94.3505 49.7725 93.9661 49.26 93.7419 48.6675C93.5337 48.0589 93.4296 47.3862 93.4296 46.6495V38.4574C93.4296 37.7207 93.5337 37.056 93.7419 36.4634C93.9661 35.8548 94.3505 35.3343 94.895 34.9019C95.4556 34.4695 96.2243 34.1331 97.2013 33.8929C98.1783 33.6527 99.4115 33.5325 100.901 33.5325C102.39 33.5325 103.616 33.6527 104.577 33.8929C105.554 34.1331 106.314 34.4695 106.859 34.9019C107.419 35.3343 107.804 35.8548 108.012 36.4634C108.236 37.056 108.348 37.7207 108.348 38.4574V46.6495ZM98.883 45.7846C98.883 46.1049 99.0031 46.3772 99.2433 46.6014C99.4836 46.8096 100.036 46.9137 100.901 46.9137C101.766 46.9137 102.318 46.8096 102.559 46.6014C102.799 46.3772 102.919 46.1049 102.919 45.7846V39.3222C102.919 39.0179 102.799 38.7617 102.559 38.5535C102.318 38.3293 101.766 38.2172 100.901 38.2172C100.036 38.2172 99.4836 38.3293 99.2433 38.5535C99.0031 38.7617 98.883 39.0179 98.883 39.3222V45.7846ZM126.133 46.6495C126.133 47.3862 126.021 48.0589 125.797 48.6675C125.589 49.26 125.204 49.7725 124.644 50.205C124.099 50.6214 123.346 50.9497 122.385 51.1899C121.424 51.4302 120.199 51.5503 118.71 51.5503C117.22 51.5503 115.995 51.4302 115.034 51.1899C114.073 50.9497 113.313 50.6214 112.752 50.205C112.207 49.7725 111.823 49.26 111.599 48.6675C111.391 48.0589 111.287 47.3862 111.287 46.6495V34.7577C111.287 34.4534 111.351 34.2372 111.479 34.1091C111.623 33.965 111.847 33.8929 112.151 33.8929H115.923C116.227 33.8929 116.444 33.965 116.572 34.1091C116.716 34.2372 116.788 34.4534 116.788 34.7577V45.7125C116.788 46.0329 116.908 46.3051 117.148 46.5293C117.389 46.7376 117.925 46.8417 118.758 46.8417C119.607 46.8417 120.151 46.7376 120.391 46.5293C120.632 46.3051 120.752 46.0329 120.752 45.7125V34.7577C120.752 34.4534 120.816 34.2372 120.944 34.1091C121.088 33.965 121.312 33.8929 121.617 33.8929H125.268C125.573 33.8929 125.789 33.965 125.917 34.1091C126.061 34.2372 126.133 34.4534 126.133 34.7577V46.6495ZM147.991 33.8929H151.571C151.875 33.8929 152.091 33.965 152.219 34.1091C152.364 34.2372 152.436 34.4534 152.436 34.7577V44.0789C152.436 44.5914 152.412 45.0719 152.364 45.5204C152.332 45.9528 152.211 46.4653 152.003 47.0579L150.802 50.3251C150.722 50.5653 150.602 50.7735 150.442 50.9497C150.298 51.1099 150.097 51.1899 149.841 51.1899H146.646C146.39 51.1899 146.157 51.1339 145.949 51.0218C145.741 50.9097 145.605 50.7255 145.541 50.4692L144.436 46.5534C144.388 46.3932 144.324 46.2891 144.244 46.2411C144.18 46.177 144.099 46.145 144.003 46.145H143.787C143.691 46.145 143.603 46.177 143.523 46.2411C143.459 46.2891 143.403 46.3932 143.355 46.5534L142.226 50.4692C142.162 50.7095 142.041 50.8936 141.865 51.0218C141.689 51.1339 141.473 51.1899 141.217 51.1899H138.045C137.789 51.1899 137.565 51.1099 137.373 50.9497C137.197 50.7895 137.069 50.5813 136.988 50.3251L135.787 47.0098C135.579 46.4172 135.451 45.9047 135.403 45.4723C135.371 45.0239 135.355 44.5434 135.355 44.0309V34.7577C135.355 34.4534 135.419 34.2372 135.547 34.1091C135.691 33.965 135.915 33.8929 136.22 33.8929H139.919C140.224 33.8929 140.44 33.965 140.568 34.1091C140.712 34.2372 140.784 34.4534 140.784 34.7577V43.5985L142.178 40.5715C142.306 40.2992 142.474 40.107 142.682 39.9949C142.89 39.8828 143.147 39.8267 143.451 39.8267H144.46C144.764 39.8267 145.02 39.8828 145.229 39.9949C145.437 40.107 145.605 40.2992 145.733 40.5715L147.126 43.5985V34.7577C147.126 34.4534 147.191 34.2372 147.319 34.1091C147.463 33.965 147.687 33.8929 147.991 33.8929ZM156.017 51.1899C155.712 51.1899 155.488 51.1259 155.344 50.9978C155.216 50.8536 155.152 50.6294 155.152 50.3251V47.4663C155.152 47.162 155.216 46.9458 155.344 46.8176C155.488 46.6735 155.712 46.6014 156.017 46.6014H158.395V38.5295H156.017C155.712 38.5295 155.488 38.4654 155.344 38.3373C155.216 38.1931 155.152 37.9689 155.152 37.6646V34.7577C155.152 34.4534 155.216 34.2372 155.344 34.1091C155.488 33.965 155.712 33.8929 156.017 33.8929H166.251C166.555 33.8929 166.771 33.965 166.899 34.1091C167.043 34.2372 167.115 34.4534 167.115 34.7577V37.6646C167.115 37.9689 167.043 38.1931 166.899 38.3373C166.771 38.4654 166.555 38.5295 166.251 38.5295H163.92V46.6014H166.251C166.555 46.6014 166.771 46.6735 166.899 46.8176C167.043 46.9458 167.115 47.162 167.115 47.4663V50.3251C167.115 50.6294 167.043 50.8536 166.899 50.9978C166.771 51.1259 166.555 51.1899 166.251 51.1899H156.017ZM174.55 51.1899H170.946C170.642 51.1899 170.418 51.1259 170.274 50.9978C170.146 50.8536 170.082 50.6294 170.082 50.3251V34.7577C170.082 34.4534 170.146 34.2372 170.274 34.1091C170.418 33.965 170.642 33.8929 170.946 33.8929H173.445C173.749 33.8929 174.005 33.9409 174.214 34.037C174.438 34.1331 174.654 34.3013 174.862 34.5415L179.523 39.8748V34.7577C179.523 34.4534 179.587 34.2372 179.715 34.1091C179.859 33.965 180.083 33.8929 180.388 33.8929H183.991C184.296 33.8929 184.512 33.965 184.64 34.1091C184.784 34.2372 184.856 34.4534 184.856 34.7577V50.3251C184.856 50.6294 184.784 50.8536 184.64 50.9978C184.512 51.1259 184.296 51.1899 183.991 51.1899H180.388C180.083 51.1899 179.859 51.1259 179.715 50.9978C179.587 50.8536 179.523 50.6294 179.523 50.3251V47.3702L175.415 42.3973V50.3251C175.415 50.6294 175.343 50.8536 175.199 50.9978C175.071 51.1259 174.854 51.1899 174.55 51.1899ZM193.839 51.1899H189.419C189.115 51.1899 188.89 51.1259 188.746 50.9978C188.618 50.8536 188.554 50.6294 188.554 50.3251V47.178C188.554 46.8737 188.618 46.6575 188.746 46.5293C188.89 46.3852 189.115 46.3131 189.419 46.3131H193.839C194.144 46.3131 194.36 46.3852 194.488 46.5293C194.632 46.6575 194.704 46.8737 194.704 47.178V50.3251C194.704 50.6294 194.632 50.8536 194.488 50.9978C194.36 51.1259 194.144 51.1899 193.839 51.1899ZM193.479 44.8957H189.755C189.451 44.8957 189.227 44.8317 189.083 44.7035C188.955 44.5594 188.882 44.3352 188.866 44.0309L188.506 34.7577C188.49 34.4534 188.546 34.2372 188.674 34.1091C188.802 33.965 189.019 33.8929 189.323 33.8929H193.911C194.216 33.8929 194.432 33.965 194.56 34.1091C194.688 34.2372 194.744 34.4534 194.728 34.7577L194.392 44.0309C194.376 44.3352 194.296 44.5594 194.152 44.7035C194.008 44.8317 193.783 44.8957 193.479 44.8957Z" fill="white"/>
</svg>
