<svg width="25" height="25" viewBox="0 0 25 25" fill="none" xmlns="http://www.w3.org/2000/svg">
<path d="M18.5 9.9707V4.5707C18.5 4.01065 18.5 3.73062 18.391 3.51671C18.2951 3.32855 18.1422 3.17557 17.954 3.0797C17.7401 2.9707 17.4601 2.9707 16.9 2.9707H8.1C7.53995 2.9707 7.25992 2.9707 7.04601 3.0797C6.85785 3.17557 6.70487 3.32855 6.60899 3.51671C6.5 3.73062 6.5 4.01065 6.5 4.5707V9.9707M10.5 6.9707V5.9707M14.5 6.9707V5.9707M9.3 22.9707H15.7C17.3802 22.9707 18.2202 22.9707 18.862 22.6437C19.4265 22.3561 19.8854 21.8972 20.173 21.3327C20.5 20.6909 20.5 19.8509 20.5 18.1707V13.1707C20.5 12.0506 20.5 11.4905 20.282 11.0627C20.0903 10.6864 19.7843 10.3804 19.408 10.1887C18.9802 9.9707 18.4201 9.9707 17.3 9.9707H7.7C6.5799 9.9707 6.01984 9.9707 5.59202 10.1887C5.21569 10.3804 4.90973 10.6864 4.71799 11.0627C4.5 11.4905 4.5 12.0506 4.5 13.1707V18.1707C4.5 19.8509 4.5 20.6909 4.82698 21.3327C5.1146 21.8972 5.57354 22.3561 6.13803 22.6437C6.77976 22.9707 7.61984 22.9707 9.3 22.9707Z" stroke="black" stroke-width="2" stroke-linecap="round" stroke-linejoin="round"/>
</svg>
