<svg width="24" height="22" viewBox="0 0 24 22" fill="none" xmlns="http://www.w3.org/2000/svg">
<g filter="url(#filter0_dd_243_1718)">
<path d="M12.9051 4.30037C12.8715 3.97615 12.8365 3.63975 12.7506 3.30407C12.5164 2.50102 11.8676 2.00001 11.1721 2.00001C10.7841 1.99857 10.2934 2.23763 10.0151 2.47955L7.70891 4.41131H6.50162C5.61311 4.41131 4.89867 5.09627 4.76375 6.0847C4.6491 7.03376 4.62114 8.82524 4.76375 9.8695C4.88748 10.9138 5.56977 11.5887 6.50162 11.5887H7.70891L10.0599 13.5491C10.301 13.7588 10.7268 13.9993 11.1182 13.9993C11.1434 14 11.1658 14 11.1882 14C11.897 14 12.5213 13.4804 12.7555 12.6795C12.8442 12.3388 12.875 12.0196 12.9051 11.7111L12.9365 11.4055C13.0568 10.4142 13.0568 5.57939 12.9365 4.59526L12.9051 4.30037Z" fill="#6961B8"/>
<path opacity="0.4" d="M15.6046 4.3297C15.4124 4.04627 15.0314 3.97542 14.7525 4.17224C14.4764 4.3705 14.4078 4.76129 14.6001 5.04401C15.1349 5.83203 15.4292 6.88129 15.4292 7.99998C15.4292 9.11796 15.1349 10.1679 14.6001 10.956C14.4078 11.2387 14.4764 11.6295 14.7532 11.8277C14.8566 11.9007 14.9776 11.9394 15.102 11.9394C15.3027 11.9394 15.49 11.8385 15.6046 11.6703C16.2799 10.6754 16.6525 9.37205 16.6525 7.99998C16.6525 6.62792 16.2799 5.32457 15.6046 4.3297" fill="#6961B8"/>
<path opacity="0.4" d="M17.7118 2.3048C17.5209 2.02208 17.1385 1.94979 16.8603 2.14734C16.5842 2.3456 16.5157 2.73639 16.7072 3.0191C17.6118 4.3518 18.1102 6.12109 18.1102 7.99989C18.1102 9.87941 17.6118 11.6487 16.7072 12.9814C16.5157 13.2648 16.5842 13.6549 16.861 13.8532C16.9645 13.9262 17.0847 13.9648 17.2092 13.9648C17.4098 13.9648 17.5978 13.8639 17.7118 13.6957C18.7576 12.1562 19.3336 10.1335 19.3336 7.99989C19.3336 5.86772 18.7576 3.84434 17.7118 2.3048" fill="#6961B8"/>
</g>
<defs>
<filter id="filter0_dd_243_1718" x="0" y="0" width="24" height="24" filterUnits="userSpaceOnUse" color-interpolation-filters="sRGB">
<feFlood flood-opacity="0" result="BackgroundImageFix"/>
<feColorMatrix in="SourceAlpha" type="matrix" values="0 0 0 0 0 0 0 0 0 0 0 0 0 0 0 0 0 0 127 0" result="hardAlpha"/>
<feOffset dy="4"/>
<feGaussianBlur stdDeviation="2"/>
<feComposite in2="hardAlpha" operator="out"/>
<feColorMatrix type="matrix" values="0 0 0 0 0 0 0 0 0 0 0 0 0 0 0 0 0 0 0.25 0"/>
<feBlend mode="normal" in2="BackgroundImageFix" result="effect1_dropShadow_243_1718"/>
<feColorMatrix in="SourceAlpha" type="matrix" values="0 0 0 0 0 0 0 0 0 0 0 0 0 0 0 0 0 0 127 0" result="hardAlpha"/>
<feOffset dy="4"/>
<feGaussianBlur stdDeviation="2"/>
<feComposite in2="hardAlpha" operator="out"/>
<feColorMatrix type="matrix" values="0 0 0 0 0 0 0 0 0 0 0 0 0 0 0 0 0 0 0.25 0"/>
<feBlend mode="normal" in2="effect1_dropShadow_243_1718" result="effect2_dropShadow_243_1718"/>
<feBlend mode="normal" in="SourceGraphic" in2="effect2_dropShadow_243_1718" result="shape"/>
</filter>
</defs>
</svg>
